Inverse Dynamics Generalized Forces
version=1
nRows=9
nColumns=34
inDegrees=no
endheader 
time	pelvis_tilt_moment	pelvis_list_moment	pelvis_rotation_moment	pelvis_tx_force	pelvis_ty_force	pelvis_tz_force	hip_flexion_l_moment	hip_adduction_l_moment	hip_rotation_l_moment	hip_flexion_r_moment	hip_adduction_r_moment	hip_rotation_r_moment	knee_angle_l_moment	knee_angle_r_moment	ankle_angle_l_moment	ankle_angle_r_moment	subtalar_angle_l_moment	subtalar_angle_r_moment	mtp_angle_l_moment	mtp_angle_r_moment	lumbar_extension_moment	lumbar_bending_moment	lumbar_rotation_moment	arm_flex_l_moment	arm_add_l_moment	arm_rot_l_moment	arm_flex_r_moment	arm_add_r_moment	arm_rot_r_moment	elbow_flex_l_moment	elbow_flex_r_moment	pro_sup_l_moment	pro_sup_r_moment	
          6.32000000	         -0.00000000	          0.00000000	         -0.00000000	         -0.00000000	          0.00000000	         -0.00000000	         15.09862864	        -48.51662773	        -10.04771556	        -38.21217641	         12.66543618	         -0.75535548	        -57.46629663	         20.34187184	          5.01577850	          5.07230052	         -0.98403992	         -0.27992829	         -0.09835792	         -0.07744000	        116.09938102	        -71.26158213	          5.85644335	        -20.46734689	         84.27893133	         48.58557739	         92.47957419	        -32.39001969	        -34.82705070	         28.82567973	         35.72325241	          0.49312622	         -1.41723359	
          6.33000000	          0.00000000	          0.00000000	          0.00000000	          0.00000000	         -0.00000000	          0.00000000	         -1.42100794	         -4.78409604	         -4.05566837	         11.27914974	         -4.88109727	          1.08957001	         -7.90395964	        -33.67064463	          1.73543577	         13.88809655	         -0.84594154	         -0.59696391	         -0.05049999	          0.01590369	         20.57658107	        -38.45081196	         -9.72717435	         22.17822904	         25.88413068	         10.01540231	         32.63491417	         -5.24152441	         -8.92549848	         14.76231543	         11.41835061	         -0.09215715	         -0.43366497	
          6.34000000	         -0.00000000	          0.00000000	          0.00000000	          0.00000000	         -0.00000000	         -0.00000000	         17.77696683	         14.05849687	         -5.13262114	        -22.52743036	         -2.59566349	          4.17621174	          4.99104246	        -39.20466655	          1.04157663	         18.09252211	         -0.67464093	         -1.11104114	         -0.03232466	          0.03584800	         24.27737270	        -19.23579034	         -4.72333220	         53.96643269	        -17.23687673	        -19.39709315	         17.46442965	         -0.92413914	         -5.21063660	         11.71778682	          3.99222651	         -0.78436921	         -0.21168730	
          6.35000000	         -0.00000000	          0.00000000	          0.00000000	         -0.00000000	         -0.00000000	         -0.00000000	          8.65157515	         21.06205518	         -4.01522765	          3.15385308	         -6.55794286	          3.93195366	         12.32595908	        -56.75734475	          0.82741041	         19.17868602	         -0.24718652	         -0.73815771	         -0.08436154	         -0.03896773	         -1.47278000	        -14.38573633	        -11.22130970	         25.04874437	        -16.03721759	        -14.49828181	          4.11154432	         -5.15899690	         -6.36257205	          1.94262093	         -0.84916156	         -0.45139890	         -0.08544302	
          6.36000000	         -0.00000000	          0.00000000	          0.00000000	         -0.00000000	          0.00000000	         -0.00000000	          7.37100280	         15.45541473	         -3.86353850	        -19.14424664	          0.26659011	          3.15701184	          4.83924192	        -44.44534506	          3.71999684	         17.47392236	         -0.62198219	          0.10817618	         -0.31538586	         -0.05419674	         13.65735908	        -20.86169846	        -11.74471587	        -18.51615826	         17.40396486	         10.73992358	        -10.97110340	         -5.59067366	         -1.89683015	         -3.85549828	         -4.65565893	          0.30105284	          0.12431407	
          6.37000000	         -0.00000000	          0.00000000	          0.00000000	         -0.00000000	         -0.00000000	         -0.00000000	         -2.11573336	         18.44962998	         -4.26567442	        -12.43549877	         -5.66295553	          0.79316147	          9.72185408	        -54.21517710	          2.37075980	         17.11414729	         -0.04955519	          0.60144009	         -0.25930994	         -0.02760808	          1.56842334	        -14.79098010	         -7.19617576	        -51.10676485	         25.12890961	         21.80516616	        -28.79540966	         -2.99689479	          3.87058681	        -12.13214424	         -7.91363987	          0.80019940	          0.30651622	
          6.38000000	         -0.00000000	          0.00000000	          0.00000000	         -0.00000000	          0.00000000	         -0.00000000	        -15.48591317	         31.73632218	        -10.16529537	        -11.28796101	        -18.90773033	         -4.81795865	          6.00669163	        -89.18069096	          2.42690153	         16.03097924	         -0.17505460	          4.11954819	         -0.26496993	         -0.05311634	         17.73497469	         -3.76113690	          2.50387032	        -24.22240148	        -12.99573230	         -0.69763336	        -14.77497850	          6.31837725	          5.00082043	        -11.32143876	         -3.70619121	          0.28606931	          0.14405959	
          6.39000000	         -0.00000000	          0.00000000	          0.00000000	         -0.00000000	         -0.00000000	         -0.00000000	        -24.73090818	         32.74579894	        -11.38982353	          7.19716384	        -54.24027844	         13.10844699	          9.29497541	       -154.50149576	          1.70543483	         12.16264383	          0.00218489	          6.61955399	         -0.24688311	          0.27899906	         21.98091844	         -9.47914119	         -3.03649865	          9.59448231	        -18.66481030	        -10.19774003	         -3.53734241	          5.51957305	          2.99756466	          0.66282713	          1.93789219	         -0.27662589	         -0.04331794	
          6.40000000	         -0.00000000	          0.00000000	          0.00000000	         -0.00000000	          0.00000000	         -0.00000000	        -16.87001874	         27.12731140	        -10.03955483	         31.88391847	        -53.14680776	         13.56925796	          7.04164727	       -150.16107677	          0.05717055	        -15.99627728	          0.57576313	         13.77030457	         -0.13774344	          2.17189110	        -14.93505011	        -32.04971764	        -22.65409023	         17.69902744	         -0.41215927	         -2.80518408	          2.47236708	         -5.95772125	         -4.70432690	          7.74137518	          4.40828964	         -0.26742101	         -0.17265298	
